<svg id="Layer_1" enable-background="new 0 0 512 512" height="512" viewBox="0 0 512 512" width="512" xmlns="http://www.w3.org/2000/svg"><g><g><path d="m91.425 417c-26.192 0-47.501 21.309-47.501 47.5s21.309 47.5 47.501 47.5 47.501-21.309 47.501-47.5-21.309-47.5-47.501-47.5zm0 80c-17.921 0-32.501-14.58-32.501-32.5s14.58-32.5 32.501-32.5 32.501 14.58 32.501 32.5-14.58 32.5-32.501 32.5z"/><path d="m509.993 161.336c-.028-.076-.063-.147-.093-.222-.003-.008-.005-.017-.009-.025-.009-.023-.021-.044-.03-.067-.071-.173-.145-.344-.227-.509-5.514-13.075-18.242-21.334-37.874-24.534-14.975-2.442-34.544-1.986-58.208 1.344-4.35-5.767-9.021-11.306-14.002-16.589 14.823-12.575 24.255-31.319 24.255-52.234 0-37.771-30.729-68.5-68.501-68.5-35.306 0-64.452 26.849-68.109 61.2-10.261-1.633-20.719-2.47-31.201-2.47-44.867 0-88.781 15.467-123.654 43.552-34.353 27.667-58.704 66.438-68.569 109.173-.932 4.036 1.585 8.063 5.621 8.995.567.131 1.135.194 1.693.194 3.414 0 6.5-2.346 7.301-5.814 9.112-39.476 31.615-75.296 63.362-100.865 32.683-26.321 72.189-40.234 114.245-40.234 10.526 0 21.021.909 31.28 2.687 3.941 34.052 32.939 60.582 68.032 60.582 11.409 0 22.167-2.819 31.638-7.774 20.055 20.708 34.921 45.845 43.331 73.264-5.11 3.377-10.893 7.016-17.481 10.935-76.543 46.275-215.518 98.288-303.53 113.586-7.328 1.327-13.9 2.351-19.828 3.144-3.661-8.2-6.677-16.595-9.064-25.154-.057-.273-.133-.544-.221-.812-4.263-15.57-6.43-31.682-6.43-48.189 0-3.498.1-7.031.297-10.5.234-4.136-2.928-7.678-7.064-7.913-4.13-.231-7.679 2.927-7.913 7.063-.213 3.751-.32 7.57-.32 11.35 0 4.861.191 9.686.535 14.481-22.341 14.517-37.889 27.518-47.436 39.666-11.032 14.04-14.358 27.592-9.905 40.288.024.075.041.151.067.227 4.327 12.265 17.512 26.759 55.656 26.759.572 0 1.153-.003 1.736-.01 11.596-.139 24.544-1.196 38.736-3.141 17.555 23.383 40.337 42.839 66.158 56.423 28.076 14.771 59.795 22.578 91.728 22.578 57.921 0 112.693-25.316 150.274-69.456 2.685-3.154 2.305-7.887-.849-10.573-3.154-2.685-7.888-2.304-10.573.849-34.725 40.787-85.335 64.18-138.852 64.18-54.612 0-106.402-24.712-140.893-66.648 12.467-2.169 25.76-4.941 39.839-8.312 4.028-.965 6.513-5.012 5.548-9.041s-5.019-6.513-9.04-5.547c-18.411 4.409-35.393 7.764-50.841 10.051-.043.005-.085.012-.128.018-15.304 2.262-29.102 3.475-41.28 3.621-30.612.357-40.31-8.913-43.071-16.74 0-.001 0-.001-.001-.002-.004-.013-.007-.026-.012-.039-5.428-15.085 9.336-34.248 45.056-58.422.865 5.465 1.959 10.878 3.283 16.234-14.499 10.502-25.248 20.385-31.982 29.423-.028.035-.055.072-.083.108-.03.04-.063.08-.092.12-.032.044-.058.09-.089.135-.096.137-.19.275-.278.419-.055.09-.104.181-.155.272-.066.12-.132.24-.192.364-.059.122-.112.246-.164.371-.03.07-.065.136-.092.208-.013.034-.021.068-.033.102-.049.133-.091.268-.132.403-.033.108-.068.217-.095.325-.03.116-.052.233-.076.35-.027.132-.055.264-.075.397-.013.088-.021.176-.031.264-.018.161-.036.321-.043.481-.003.062-.001.123-.003.185-.004.184-.006.367.003.549.002.047.009.093.012.14.013.193.031.386.059.577.007.049.019.098.027.147.031.185.065.37.11.551.016.065.037.129.055.194.045.163.09.325.146.484.029.084.065.166.097.25.053.138.106.276.168.41.043.094.093.184.139.276.062.122.123.244.191.363.052.09.111.177.167.266.075.118.149.236.231.35.054.076.114.148.171.222.095.123.191.245.294.362.051.058.106.112.159.169.12.128.242.254.372.373.047.044.097.085.146.127.142.124.286.245.438.359.018.013.033.029.052.042.02.015.042.024.062.038.307.222.629.429.975.605.003.001.006.003.009.005.232.118.472.226.721.322 3.116 1.197 9.981 2.954 23.39 2.954 11.859 0 28.836-1.375 52.856-5.726 89.465-15.551 230.817-68.453 308.622-115.492 45.079-26.816 56.825-42.703 59.783-48.288.105-.199.196-.401.282-.605.007-.017.016-.032.023-.049.161-.39.28-.788.372-1.188.005-.02.014-.038.018-.058s.006-.039.01-.059c.041-.191.071-.383.096-.575.008-.058.018-.117.024-.175.019-.181.029-.361.035-.542.002-.072.008-.144.008-.216.001-.16-.007-.319-.017-.478-.005-.09-.008-.18-.016-.269-.013-.142-.036-.283-.057-.424-.015-.101-.028-.202-.047-.302-.026-.136-.062-.269-.095-.403-.025-.099-.047-.2-.076-.297-.042-.142-.093-.281-.144-.42-.031-.084-.058-.17-.091-.253-.063-.155-.135-.307-.208-.458-.03-.062-.057-.126-.088-.187-.085-.164-.18-.323-.277-.481-.028-.045-.052-.091-.081-.135-.102-.159-.214-.312-.329-.464-.031-.041-.059-.083-.091-.123-.11-.139-.228-.271-.348-.403-.046-.05-.089-.102-.136-.151-.106-.11-.219-.214-.333-.317-.072-.066-.141-.133-.215-.196-.095-.081-.196-.156-.295-.232-.102-.078-.204-.157-.31-.23-.085-.058-.174-.112-.262-.167-.128-.08-.256-.159-.39-.232-.028-.015-.053-.034-.082-.049-.063-.033-.127-.058-.19-.089-.13-.064-.261-.128-.396-.185-.117-.05-.235-.093-.353-.136-.109-.04-.217-.08-.329-.115-.15-.047-.3-.086-.451-.123-.062-.015-.12-.036-.183-.05-.054-.012-.111-.022-.165-.033-.032-.006-.064-.014-.096-.019-11.054-2.386-25.665-2.778-43.483-1.177-2.585-5.027-5.385-9.94-8.394-14.73 41.591-4.936 66.67.317 72.798 15.379 5.91 16.929-13.512 39.01-59.41 67.519-60.041 37.698-164.485 81.505-253.989 106.531-3.989 1.116-6.318 5.253-5.203 9.243.926 3.314 3.939 5.482 7.219 5.482.668 0 1.348-.09 2.023-.279 87.703-24.523 189.721-66.939 251.615-104.387.05 1.766.084 3.535.084 5.306 0 32.622-8.718 64.626-25.21 92.551-2.106 3.566-.923 8.166 2.645 10.272 1.197.707 2.51 1.043 3.807 1.043 2.565 0 5.066-1.318 6.465-3.687 17.852-30.233 27.291-64.874 27.291-100.178 0-4.834-.176-9.673-.52-14.441 21.591-14.035 36.844-26.658 46.446-38.437 11.891-14.588 15.524-28.646 10.797-41.786zm-208.19-92.836c0-29.5 24-53.5 53.502-53.5 29.5 0 53.501 24 53.501 53.5s-24 53.5-53.501 53.5-53.502-24-53.502-53.5zm-248.875 263.859c4.399-4.305 9.735-8.837 15.996-13.574 1.481 4.401 3.109 8.761 4.91 13.071-9.096.73-15.912.763-20.906.503zm406.312-152.186c-3.594 3.477-8.759 7.932-16.101 13.359-1.477-4.425-3.105-8.791-4.89-13.091 7.831-.539 14.835-.626 20.991-.268z"/></g></g></svg>